<svg width="47" height="47" viewBox="0 0 47 47" fill="none" xmlns="http://www.w3.org/2000/svg">
<path d="M47 23.5C47 10.5213 36.4787 0 23.5 0C10.5213 0 0 10.5213 0 23.5C0 36.4787 10.5213 47 23.5 47C36.4787 47 47 36.4787 47 23.5Z" fill="#B6D0A0"/>
<path fill-rule="evenodd" clip-rule="evenodd" d="M24.1819 35H29.2739C31.8227 35 34.0451 33.2644 34.6635 30.7921L36.9158 21.7854C37.3539 20.0321 36.0275 18.333 34.221 18.333H26.6665L28.6235 15.3982C30.1622 13.0907 28.5073 10 25.734 10H23.8888L18.5169 19.4016C18.3963 19.6117 18.3333 19.8496 18.3333 20.0907V31.479C18.3333 31.9436 18.5656 32.3772 18.9516 32.635L21.1 34.0664C22.0137 34.6748 23.0856 35 24.1819 35ZM12.7777 16.9447H13.4724C15.0068 16.9447 16.2502 18.1881 16.2502 19.7223V32.2224C16.2502 33.7567 15.0068 35 13.4724 35H12.7777C11.2434 35 10 33.7567 10 32.2224V19.7223C10 18.1881 11.2434 16.9447 12.7777 16.9447Z" fill="white"/>
</svg>
