<svg width="130" height="130" viewBox="0 0 130 130" fill="none" xmlns="http://www.w3.org/2000/svg">
<path fill-rule="evenodd" clip-rule="evenodd" d="M34.8701 30.1873L72.704 33.6049C74.3513 33.7524 76.4504 35.0297 77.4356 36.489L102.477 73.5364C104.608 76.6873 104.903 79.9856 102.957 80.7388L48.2051 101.919C43.0154 103.928 37.8226 100.033 37.0696 93.6748L29.9251 33.1813C29.696 31.2324 31.9677 29.9269 34.8701 30.1873Z" fill="#D8D8D8"/>
<path fill-rule="evenodd" clip-rule="evenodd" d="M95.0066 28.2793V28C92.5027 28.1946 71.3768 44.7427 67.8595 47.7398C66.8931 48.5652 65.9675 49.3654 64.9697 50.1312L53.9942 60.023C52.6701 61.451 50.4423 64.2848 49.7395 66.218C50.3733 66.8425 51.5562 67.7809 52.3846 68.738C53.3415 69.8427 54.1824 71.6127 54.5307 71.8826C56.0399 70.9599 58.3995 69.9965 59.5227 69.2119L63.7994 65.4931C64.1508 65.1541 64.5807 64.6489 65.0576 64.1781L73.9246 54.6189C74.7498 53.6335 75.5688 52.7736 76.394 51.8007L83.5886 43.2772C86.4721 39.687 90.2938 35.1396 92.8981 31.4584L95.0066 28.2793Z" fill="#739CF3"/>
<path fill-rule="evenodd" clip-rule="evenodd" d="M26 87.4924C27.7163 88.5343 33.1884 89.5135 35.6671 89.5417C44.7946 89.6578 49.6015 84.715 51.7948 76.248C52.1336 74.933 52.0897 75.2311 51.5437 74.0543C50.6966 72.2309 49.2187 70.4264 47.5715 69.2182C46.8059 68.6564 46.6584 68.5435 45.4253 68.5215C44.4997 68.5027 43.6243 68.6376 42.821 68.8981C39.9155 69.8427 37.9263 72.1525 36.5551 74.4215C35.0992 76.8285 34.1265 79.9417 32.4448 82.1008C31.5254 83.2808 30.741 84.2914 29.6993 85.1764C27.5563 86.9997 27.6128 86.5164 26 87.4924Z" fill="#B6D0A0"/>
</svg>
