<svg width="130" height="130" viewBox="0 0 130 130" fill="none" xmlns="http://www.w3.org/2000/svg">
<path fill-rule="evenodd" clip-rule="evenodd" d="M98.8005 82.524C98.38 82.4173 96.8677 79.8722 96.4817 79.1378L91.2355 71.0316C90.7335 70.382 90.1437 69.4342 89.7107 68.6967L87.4515 65.2634C86.6859 63.8606 85.0481 61.4944 84.088 60.0257C83.9436 59.8091 83.8526 59.5612 83.724 59.3603C83.4291 58.9084 83.6299 59.3886 83.3349 58.9241L80.7087 54.9009C79.3658 53.4541 77.6118 54.5996 75.5943 55.4532L34.3591 72.8926C33.8633 73.1029 33.3645 73.3131 32.8718 73.5297C32.1157 73.8561 32.2161 73.7525 31.9086 73.0056C31.3532 71.653 28.4572 65.0092 28.2626 64.3C29.0659 63.8198 30.6504 63.255 31.5791 62.8658C39.3229 59.5957 81.2766 41.7138 81.5621 41.8173C81.7222 41.8738 81.7598 42.0119 81.8916 42.3258C84.8316 49.2927 98.8287 82.138 98.8005 82.524ZM29.3106 74.9105C28.1434 75.7202 24.3531 76.759 23.5718 77.5027C22.2446 78.7643 23.553 79.9632 24.2307 80.9015C24.3656 81.0898 24.4535 81.2656 24.6041 81.5166L28.09 86.7262C28.3379 87.0933 28.6046 87.5515 28.8619 87.8622C29.0753 88.1164 29.0533 88.1164 29.2353 88.4271L31.19 91.4461C32.2945 93.1596 34.0265 95.5573 35.018 97.1704C35.3224 97.6662 35.542 97.8922 35.7836 98.2939C36.0911 98.8117 36.3013 98.9686 36.546 99.4299L38.1149 101.784C38.5541 102.361 39.8123 104.464 40.4054 105.248C40.9137 105.923 41.3059 106.777 42.0777 107.175C43.405 107.856 44.3149 107.332 45.5825 106.799L100.507 83.5722C101.599 83.1077 102.352 82.6495 101.565 80.7822L83.4667 37.9729C82.8706 36.567 82.5693 36.4069 81.4461 36.0649C80.4891 35.7762 79.3187 36.4132 78.2362 36.8714L50.4428 48.6243C49.5046 49.0228 49.0151 49.1641 48.0017 48.2351C46.6776 47.0206 47.1608 46.7288 46.2728 45.9599C44.6412 44.5477 42.9814 45.668 40.6658 46.6472C36.4049 48.4485 32.147 50.2656 27.883 52.0544C25.8592 52.9049 25.8121 53.7428 25.7431 54.9542C25.6803 55.9961 26.5306 56.5579 26.1039 58.2337C25.7964 59.4514 24.83 59.081 24.2997 60.3018C24.1334 60.6878 23.8981 60.7443 23.9452 61.6136C24.0017 62.7277 25.9282 66.8671 26.4898 68.1946C27.3841 70.3098 28.5795 72.7859 29.3106 74.9105Z" fill="#B6D0A0"/>
<path d="M103.804 52.2931L81.9265 26.2619C80.4124 24.4604 77.9606 24.0295 76.4502 25.2994L34.4105 60.6451C32.9001 61.915 32.903 64.4048 34.4171 66.2063L56.2947 92.2375C57.8087 94.039 60.2605 94.4699 61.771 93.2L103.811 57.8543C105.321 56.5844 105.318 54.0946 103.804 52.2931Z" fill="#D8D8D8"/>
<path fill-rule="evenodd" clip-rule="evenodd" d="M95.1419 77.0666L91.2355 71.0316C90.7335 70.382 90.1436 69.4343 89.7106 68.6968L87.4515 65.2635C86.6859 63.8607 85.048 61.4944 84.0879 60.0257C83.9436 59.8092 83.8526 59.5612 83.7239 59.3604C83.429 58.9085 83.6298 59.3886 83.3348 58.9242L80.7086 54.9009C79.3657 53.4541 77.6117 54.5996 75.5942 55.4532L35.5576 72.3874L50.6059 99.1161L95.1419 77.0666Z" fill="#B6D0A0"/>
</svg>
