<svg width="130" height="130" viewBox="0 0 130 130" fill="none" xmlns="http://www.w3.org/2000/svg">
<path fill-rule="evenodd" clip-rule="evenodd" d="M55.8131 50.829C57.7835 50.5748 60.4694 51.3531 62.1229 52.3888C63.7859 53.4338 65.0598 54.8774 66.0701 56.5909C66.6882 57.6423 67.1244 59.5535 67.231 60.7491C67.4162 62.8675 66.7698 65.4001 65.6277 67.1544C64.9531 68.1869 64.0589 69.1943 63.0956 69.9475C62.7975 70.1797 62.5842 70.324 62.3081 70.5123C60.8145 71.526 59.2112 72.0438 57.3505 72.2039C53.8834 72.5052 51.64 71.1588 49.3432 69.4547C48.5808 68.893 47.4889 67.4431 46.9555 66.4075C45.5937 63.765 45.28 60.5357 46.4629 57.6925C47.2943 55.6902 48.2733 54.4318 49.9143 53.1074C51.64 51.7172 53.532 51.1209 55.8131 50.829ZM52.506 24.3262C52.0322 28.9803 50.7865 34.1271 46.0926 36.0571C42.2427 37.6388 38.9073 36.4463 35.7446 34.2934L33.0619 32.3351C32.1394 32.7933 28.5028 36.4337 27.9286 37.1901C27.7121 37.4756 27.4517 37.7173 27.2666 38.028C27.4674 38.4768 28.8166 40.0302 29.2057 40.6265C31.3832 43.9719 32.7293 46.9658 31.0852 51.055C30.2599 53.1012 28.5185 54.7425 26.6108 55.6871C24.0787 56.9424 22.2056 56.9581 19.275 57.4885C18.8985 58.4111 18.9204 64.6532 19.2687 65.6543C25.2334 66.2694 29.1837 67.5059 31.1542 72.0124C32.1708 74.3348 31.8476 77.3569 30.8561 79.5506C30.3447 80.6804 29.8395 81.4744 29.2151 82.419L27.2729 85.1085C27.6494 85.6765 30.2631 88.3943 30.6804 88.7489L33.0619 90.7041C34.1946 90.2208 39.6886 84.3051 46.0926 87.0731C48.245 88.0051 49.6601 89.5335 50.6893 91.4886C51.8094 93.6227 52.1546 96.1333 52.5154 98.7945C53.7924 99.2653 58.8911 98.9923 60.4631 98.8699C60.9024 96.1835 61.0404 93.8549 62.2139 91.6142C64.6801 86.9005 69.5341 85.1775 74.3065 87.1641C77.1429 88.3472 79.4993 90.5565 79.926 90.6978C81.156 89.976 83.3179 87.6976 84.4098 86.6557C84.6608 86.4203 84.8051 86.1881 85.0279 85.915C85.3165 85.5698 85.4515 85.5071 85.7056 85.1085C85.4954 84.5718 83.3837 82.375 82.1318 79.5537C81.1466 77.3318 80.7607 74.3285 81.8212 72.003C83.9172 67.4023 87.7326 66.3227 93.8196 65.6543C94.1899 64.6814 94.1805 58.4739 93.8228 57.4791C91.0491 57.1307 88.7617 56.7729 86.4618 55.7122C81.8243 53.575 79.9637 48.4596 82.0691 43.6235C82.7719 42.0136 84.096 40.0208 85.2381 38.7247L85.715 38.028C85.0687 36.9829 81.1121 33.0381 79.926 32.3383C79.2514 32.5988 76.3554 35.5425 72.8035 36.4432C69.1764 37.3595 66.2866 36.2203 64.3099 34.3531C60.3439 30.6122 60.8773 24.615 60.347 24.2792C59.8168 23.9465 53.6763 23.8524 52.506 24.3262Z" fill="#D8D8D8"/>
<path fill-rule="evenodd" clip-rule="evenodd" d="M57.9184 85.4913C60.1085 79.1112 61.4828 74.1119 65.3453 69.8721C68.1817 66.7589 75.4297 61.6278 79.6907 61.2638C77.943 61.6781 74.2092 64.3079 73.0733 65.2275C71.1343 66.8029 69.3897 68.5509 67.8397 70.5406C66.2207 72.6212 65.2982 74.8337 64.6174 77.9971C64.0965 80.401 63.1583 84.7601 63.2336 87.2111C64.4793 88.0585 70.0957 88.8022 71.9972 88.8054C77.6355 88.8179 83.9485 87.2425 89.4049 85.9213C92.0343 85.2842 94.8582 84.5153 97.5377 84.032C97.1204 84.622 93.8886 86.3763 92.9411 86.9255C88.1561 89.6935 81.6517 91.9531 75.938 92.6843C71.4731 93.2586 66.8074 92.1476 63.2838 90.4404C61.3354 89.4989 55.424 86.1598 54.4387 84.076L57.9184 85.4913ZM111.532 83.6962C112.112 80.8435 108.162 78.6154 107.754 75.612C107.594 74.4383 107.428 73.4027 107.199 72.2415C106.323 67.7977 104.936 64.0412 102.796 60.7648C98.5669 54.3031 91.9402 50.7694 81.134 50.6501C75.9035 50.5905 71.9218 51.3688 68.1002 53.6472C61.7809 57.4163 56.9018 64.4084 53.8049 71.1149C49.0984 81.3017 53.0676 76.3495 46.877 80.0841C44.0092 81.8133 39.7827 84.4808 39.6792 88.8995C39.6259 91.2595 41.3453 93.0609 42.3399 94.2409L44.3072 96.2023C44.9254 96.7735 45.6941 97.4513 46.4283 98.0194C49.4216 100.329 52.1953 102.278 56.1802 104.161C60.9055 106.389 64.1247 106.298 69.6878 105.573C77.9806 104.494 87.6196 101.522 94.1742 98.148C97.9739 96.1929 100.512 94.8622 103.986 92.0692C105.523 90.8327 106.941 89.6464 108.187 88.2593C108.862 87.503 111.287 84.8919 111.532 83.6962Z" fill="#B6D0A0"/>
<path fill-rule="evenodd" clip-rule="evenodd" d="M57.9187 85.4915L54.439 84.0761C55.4242 86.1599 61.3356 89.499 63.2841 90.4405C66.8077 92.1477 71.4734 93.2587 75.9383 92.6844C81.6519 91.9532 88.1563 89.6936 92.9413 86.9257C93.8889 86.3765 97.1206 84.6221 97.5379 84.0321C94.8584 84.5154 92.0345 85.2843 89.4051 85.9214C83.9487 87.2426 77.6358 88.818 71.9974 88.8055C70.0959 88.8023 64.4795 88.0586 63.2339 87.2112C63.1585 84.7602 64.0967 80.4012 64.6176 77.9972C65.2984 74.8338 66.2209 72.6214 67.84 70.5407C69.39 68.551 71.1345 66.803 73.0736 65.2276C74.2094 64.3081 77.9432 61.6782 79.6909 61.2639C75.4299 61.628 68.1819 66.759 65.3455 69.8722C61.483 74.112 60.1088 79.1113 57.9187 85.4915Z" fill="#FAFAFA"/>
</svg>
