<svg width="130" height="130" viewBox="0 0 130 130" fill="none" xmlns="http://www.w3.org/2000/svg">
<path fill-rule="evenodd" clip-rule="evenodd" d="M85.0896 100.641C86.9754 100.653 89.6957 100.976 91.1987 100.076C92.8773 99.0714 92.4412 96.7993 92.4412 94.5868C92.4412 85.8216 92.5416 77.0061 92.4757 68.2503C92.2968 68.4386 92.1525 68.5924 92.1086 68.6457C91.8952 68.8999 91.6536 69.1604 91.412 69.4146V69.4272C91.2112 69.6406 91.0104 69.8571 90.8818 70.0172C90.728 70.2023 90.5272 70.422 90.3295 70.6417L90.3358 70.6448L90.0189 70.99L90.0063 71.0089L89.8777 71.1563C89.7146 71.3698 89.6738 71.4137 89.611 71.4733L89.6048 71.4702L89.5985 71.4765L89.5953 71.4733C89.3443 71.7526 89.0368 72.1324 88.7262 72.5152L88.1959 73.168L86.6961 75.0384C85.7956 76.2184 85.052 77.2007 84.4621 78.0135C83.8346 78.8734 83.1411 79.8557 82.294 81.0953C81.8296 81.7794 81.3621 82.4824 80.9008 83.1948C80.4427 83.9041 80.0035 84.6039 79.5893 85.2849L78.2652 87.488C77.8636 88.1407 77.4337 88.8939 77.0195 89.6377C76.7403 90.1398 76.2665 91.0217 75.8053 91.8941C75.3001 92.8419 74.8295 93.73 74.5879 94.2008C74.1988 94.954 73.8191 95.7165 73.4552 96.4823H73.4489L73.2889 96.8244L73.2983 96.8275C73.1979 97.0409 73.1037 97.2512 72.8339 97.7659L72.837 97.769C72.7398 97.9573 72.6645 98.1205 72.5923 98.2868C72.4856 98.5253 72.3758 98.7638 72.2911 98.9364V98.9459C72.0213 99.4919 71.8236 99.9407 71.6291 100.386L71.513 100.647L85.0896 100.641ZM91.754 65.2344C90.0221 63.6182 88.1018 61.8294 86.1376 60.0186C86.0184 60.1253 85.8992 60.232 85.7799 60.3418C85.4724 60.6243 85.1398 60.8848 84.8418 61.1798L82.3285 63.5146C82.0147 63.7939 81.7198 64.0921 81.4154 64.3777C81.2585 64.522 81.1268 64.6758 80.9699 64.8202L80.0788 65.6801L77.4337 68.3633C77.0039 68.8152 76.552 69.242 76.1316 69.7002L74.8295 71.0653C74.5188 71.3321 74.2866 71.6805 73.9666 71.9755C73.8882 72.0476 73.8191 72.1355 73.747 72.214C73.6748 72.2956 73.6058 72.352 73.5336 72.4336C73.3234 72.669 72.517 73.5728 72.2534 73.8176L71.6102 74.5175C71.5286 74.6116 71.5036 74.643 71.4032 74.7403C71.3184 74.8187 71.2682 74.9035 71.1898 74.9882C71.1082 75.0761 71.058 75.1169 70.9827 75.211C70.9105 75.2989 70.8352 75.3585 70.7631 75.4464L69.0907 77.3043C69.0248 77.389 68.9526 77.4423 68.8867 77.5302C68.6546 77.8221 68.0333 78.4842 67.7258 78.8263L66.1884 80.5932C65.8683 80.9509 65.473 81.4499 65.1623 81.7732L63.9386 83.2168C63.832 83.358 63.6688 83.5432 63.5464 83.6656C63.1793 83.4459 62.7683 83.2482 62.3855 83.0536C59.4894 81.5974 56.973 80.3264 53.8259 79.2029C52.2634 78.6443 49.6622 77.888 47.8926 78.4309C47.0015 78.7039 46.2955 79.3096 45.9786 80.0722C45.5425 81.1204 45.577 82.1121 46.3018 82.7209C46.3991 82.8025 46.4399 82.8465 46.5371 82.9406C46.6219 83.0191 46.6846 83.0567 46.7662 83.1446L47.6792 84.0076C48.3036 84.5725 48.8841 85.1688 49.474 85.7651L49.9164 86.2107C50.0482 86.3519 50.2051 86.5465 50.3431 86.672L51.617 88.0623C51.8774 88.3887 52.1881 88.6805 52.4454 89.0132L53.2423 89.9672C53.782 90.6168 54.284 91.2759 54.7986 91.96C55.8215 93.3158 56.7753 94.6935 57.726 96.1151C58.6736 97.5336 59.5616 98.9961 60.459 100.462L60.5719 100.644L68.6577 100.647L68.8522 100.211C69.2225 99.4009 69.5645 98.5598 69.9536 97.7815C70.1512 97.383 70.3175 96.9656 70.5183 96.5733C70.7191 96.1904 70.9074 95.7636 71.0956 95.3713C71.8487 93.7834 72.6739 92.2142 73.4959 90.6671C74.227 89.2925 75.2405 87.4283 76.0375 86.1291L77.3616 83.926C78.2589 82.451 79.194 81.0106 80.1415 79.6266C81.6978 77.3451 82.9999 75.5782 84.6252 73.4504L86.1941 71.4921C86.7055 70.8833 87.1825 70.2557 87.719 69.6688C87.7692 69.6155 87.7755 69.6155 87.8163 69.5621C87.8822 69.4774 87.9575 69.3958 88.0265 69.3142C88.2963 68.9941 88.5913 68.7022 88.858 68.3727C89.2471 67.8957 89.7114 67.4532 90.1068 66.9793C90.3986 66.6309 91.2206 65.8056 91.6065 65.3851L91.754 65.2344ZM84.2079 58.2423C81.3213 55.5905 78.4409 52.9857 76.0092 50.8674C75.6892 50.5881 75.4821 50.315 75.1621 50.0263C74.8232 49.7219 74.5847 49.543 74.2396 49.2511C73.5995 48.7051 73.1226 48.1716 72.4731 47.6318C71.2494 46.6213 66.1193 41.6188 65.3914 41.2266L41.018 63.4362C38.2035 65.8715 38.3635 65.5765 38.3667 67.494C38.3918 76.4193 38.3698 85.3508 38.3698 94.2792C38.3698 96.1434 37.9556 98.8643 39.3174 99.8811C40.7701 100.97 43.3587 100.678 45.3825 100.644C47.5788 100.606 49.8034 100.641 52.0029 100.641H57.5127C56.8569 99.5766 56.2043 98.5285 55.5611 97.565C55.0653 96.8244 54.5947 96.134 54.1617 95.5126L54.1554 95.5157C53.6941 94.8567 53.2172 94.1976 52.7152 93.5323C52.5175 93.2687 52.2916 92.9737 51.9653 92.5532C51.6201 92.1107 51.3629 91.778 51.2436 91.6368L51.2405 91.6399L50.4435 90.6859L50.3714 90.5949C50.271 90.4662 50.1831 90.3689 50.0953 90.2748L50.0921 90.281C49.976 90.1555 49.8631 90.03 49.6968 89.8291L48.4793 88.5016C48.3444 88.3698 48.2189 88.2255 48.0997 88.0874L48.0087 87.9901L47.56 87.5382C46.9921 86.9607 46.4273 86.3864 45.9316 85.9377L44.9777 85.0338C44.8993 84.9679 44.8114 84.8989 44.7518 84.8393L44.6294 84.7232C44.6326 84.7263 44.6357 84.7263 44.6263 84.7232C43.732 83.97 43.2489 83.0065 43.1171 81.9175C43.0041 80.9949 43.1735 80.022 43.5689 79.0711C43.8858 78.3085 44.3878 77.6338 45.0248 77.0846C45.6147 76.5793 46.3332 76.1839 47.1364 75.9391C48.4825 75.5249 49.9854 75.5782 51.3942 75.8293C52.6336 76.0489 53.8196 76.4255 54.7045 76.7394C57.7229 77.8189 60.1828 79.0272 62.9095 80.3986L63.173 80.0879L63.2734 79.9749C63.4617 79.7804 63.6123 79.5983 63.7629 79.4226L63.7567 79.4163C63.8539 79.3033 63.9606 79.1778 64.2242 78.8828L64.2179 78.8765L65.7522 77.1128L66.1381 76.6923H66.1507C66.3923 76.4255 66.6747 76.118 66.8441 75.9046L66.8473 75.9077C66.9602 75.7634 67.0355 75.6818 67.1045 75.6127L68.8208 73.7015C68.9275 73.576 68.9777 73.5258 69.0216 73.4787L69.0279 73.4818C69.1534 73.3312 69.2068 73.2747 69.2601 73.2213L69.2664 73.2276L69.2821 73.2088C69.3699 73.099 69.4609 72.9923 69.5801 72.873C69.759 72.6188 70.1136 72.2893 70.3332 72.0508L70.4775 71.9064C70.6752 71.7212 71.3278 70.9932 71.5569 70.739L71.5506 70.7327L71.5851 70.695L71.5883 70.7013C71.7138 70.5601 71.764 70.513 71.8142 70.4628L71.8204 70.4565C71.9271 70.331 72.0401 70.2023 72.2001 70.0548L72.4198 69.81L72.4229 69.8132C72.6268 69.5778 72.8308 69.3487 73.0661 69.1353L74.2113 67.9333C74.4467 67.6791 74.7353 67.3873 75.024 67.0986C76.4391 65.6518 77.8793 64.2333 79.3038 62.8022C79.4105 62.6893 79.5172 62.5763 79.6364 62.4664L79.9784 62.1432C80.129 61.9989 80.2702 61.8608 80.5526 61.6066L80.5494 61.6034L83.0627 59.2686C83.2792 59.0614 83.4831 58.8857 83.6902 58.7099L84.0134 58.4212L84.2079 58.2423ZM69.6147 72.8479C69.6272 72.8385 69.6335 72.8322 69.6147 72.8479V72.8479ZM69.2413 73.2621L69.2444 73.2559L69.2382 73.259L69.2413 73.2621Z" fill="#D8D8D8"/>
<path fill-rule="evenodd" clip-rule="evenodd" d="M48.7083 37.5798C48.7272 35.1885 48.7115 32.7908 48.7115 30.3963C48.7115 24.5622 49.3202 25.1522 42.3075 25.1522C39.9009 25.1522 40.4782 27.9265 40.5159 29.935L40.5096 45.0207C40.1958 45.7237 38.5517 46.9664 37.9932 47.4842C37.0362 48.3724 36.4212 48.9906 35.4611 49.8725C33.3181 51.8465 31.1312 53.6196 29.007 55.7316C27.6672 57.0654 26.2207 57.9033 26.0168 60.119C25.6842 63.7468 30.3499 68.7304 35.9098 62.479L59.0093 41.4085C59.9067 40.4294 61.1712 39.4345 62.1501 38.5433C62.5361 38.1918 62.7996 37.8936 63.1636 37.5641C63.606 37.1593 64.9207 35.8412 65.3913 35.6027C65.8588 35.8475 66.1287 36.2147 66.4958 36.5285L86.4231 54.7682C86.718 55.0601 87.0255 55.3488 87.3361 55.6312C88.3622 54.8184 89.5702 53.9146 90.8346 53.1175C92.6231 51.9877 94.5528 51.065 96.3758 50.8171C96.0651 50.5221 95.7576 50.224 95.4125 49.9321L78.1553 34.1026C77.5529 33.5314 77.0478 33.1392 76.461 32.5648L71.2274 27.7947C69.6303 26.1973 66.2479 22.2587 62.7902 24.8729L54.1491 32.6998C53.3866 33.4938 53.1105 33.6852 52.392 34.3317C51.5605 35.0818 49.4363 37.2283 48.7083 37.5798ZM89.3286 57.3824C89.7773 57.7715 90.2197 58.1607 90.6432 58.553L94.672 62.3064L94.6971 62.2844C95.1521 61.8544 95.5945 61.39 96.0526 60.9726L97.4143 59.6702C97.6936 59.3501 98.0168 59.0896 98.3086 58.7883C98.6788 58.4055 99.0365 58.032 99.3754 57.624C99.4381 57.5487 99.4946 57.4765 99.5637 57.3792C99.6892 57.2035 99.7896 57.0685 99.9056 56.8583C100.423 55.9137 100.342 54.9 99.6797 54.2253C99.1212 53.6541 98.1172 53.2932 97.0033 53.3779C94.6155 53.5568 91.5877 55.6218 89.3286 57.3824ZM96.5923 64.0795C97.5022 64.8044 98.6129 65.4227 100.019 65.4227C102.692 65.4227 104.788 63.3294 104.788 60.414C104.788 58.5624 103.674 57.4295 102.758 56.5884C102.654 57.1062 102.466 57.6177 102.193 58.1167C102.033 58.4086 101.898 58.6 101.738 58.8197L101.688 58.8919L101.682 58.8888C101.537 59.0959 101.468 59.1775 101.396 59.2654L101.402 59.2685L101.396 59.2779H101.387C101.148 59.5698 100.95 59.7926 100.775 59.984H100.765C100.442 60.3292 100.288 60.4924 100.175 60.6085C99.9966 60.7937 99.8586 60.9224 99.7174 61.0542C99.5762 61.186 99.435 61.3178 99.3754 61.3868L99.3377 61.4308L97.8505 62.8524L97.8097 62.9058C97.6465 63.0533 97.3641 63.3294 97.0817 63.6087L97.0786 63.6056L96.5923 64.0795Z" fill="#739CF3"/>
<path fill-rule="evenodd" clip-rule="evenodd" d="M63.5463 83.6656C63.1792 83.4459 62.7682 83.2482 62.3854 83.0536C59.4893 81.5975 56.9729 80.3264 53.8258 79.2029C52.2633 78.6443 49.659 77.888 47.8925 78.4309C47.0014 78.704 46.2954 79.3096 45.9785 80.0722C45.5424 81.1204 45.5769 82.1121 46.3017 82.721C46.399 82.8026 46.4398 82.8465 46.537 82.9406C46.6218 83.0191 46.6845 83.0567 46.7661 83.1446L47.6791 84.0076C48.3035 84.5725 48.884 85.1688 49.4739 85.7651L49.9163 86.2107C50.0481 86.3519 50.205 86.5465 50.343 86.672L51.6169 88.0623C51.8773 88.3887 52.188 88.6805 52.4453 89.0132L53.2422 89.9672C53.7819 90.6169 54.2839 91.2759 54.7985 91.9601C55.8245 93.3158 56.7752 94.6935 57.7259 96.1151C58.6735 97.5336 59.5615 98.9961 60.4589 100.462C61.3562 101.924 62.216 103.449 63.0819 104.943C63.2922 105.304 63.4992 105.725 63.7283 106.073C64.2805 106.911 65.4164 106.992 66.1412 106.355C66.4298 106.101 66.5804 105.64 66.7593 105.194C67.4245 103.525 68.1116 101.839 68.8521 100.211C69.2224 99.4009 69.5644 98.5599 69.9534 97.7816C70.1511 97.383 70.3174 96.9656 70.5213 96.5733C70.719 96.1905 70.9073 95.7637 71.0955 95.3714C71.8486 93.7834 72.6738 92.2143 73.4958 90.6671C74.2269 89.2925 75.2404 87.4284 76.0373 86.1291L77.3646 83.926C78.2588 82.4511 79.1939 81.0106 80.1414 79.6266C81.6977 77.3451 82.9998 75.5782 84.6251 73.4505L86.194 71.4922C86.7054 70.8802 87.1824 70.2557 87.7189 69.6688C87.7691 69.6123 87.7754 69.6155 87.8162 69.5621C87.882 69.4774 87.9574 69.3958 88.0264 69.3142C88.2931 68.9941 88.5912 68.7022 88.8579 68.3727C89.2469 67.8926 89.7113 67.4532 90.1067 66.9793C90.3985 66.631 91.2205 65.8056 91.6064 65.3851L92.0457 64.9363C92.9023 64.0231 93.7903 63.1475 94.6971 62.2845C95.152 61.8545 95.5976 61.3901 96.0525 60.9727L97.4143 59.6703C97.6935 59.3502 98.0167 59.0897 98.3085 58.7884C98.6788 58.4055 99.0364 58.0321 99.3753 57.6241C99.4381 57.5488 99.4946 57.4766 99.5636 57.3793C99.6891 57.2036 99.7895 57.0686 99.9056 56.8584C100.423 55.9137 100.342 54.9001 99.6797 54.2254C99.1212 53.6542 98.1171 53.2933 97.0032 53.378C94.0789 53.5977 90.1976 56.6387 87.9385 58.4934C87.2043 59.0991 86.4732 59.7048 85.7798 60.3419C85.4723 60.6243 85.1397 60.8848 84.8417 61.1798L82.3284 63.5147C82.0146 63.794 81.7197 64.0921 81.4153 64.3777C81.2584 64.5221 81.1267 64.6758 80.9698 64.8233C80.816 64.9677 80.6842 65.0964 80.5305 65.2439C80.3736 65.3945 80.2355 65.5294 80.0787 65.6801L77.4336 68.3633C77.0038 68.8152 76.5519 69.242 76.1315 69.7002L74.8293 71.0654C74.5219 71.3353 74.2865 71.6805 73.9665 71.9755C73.8881 72.0477 73.819 72.1355 73.7469 72.214C73.6747 72.2956 73.6057 72.3521 73.5335 72.4337C73.3233 72.669 72.5169 73.5729 72.2533 73.8177L71.6101 74.5175C71.5285 74.6116 71.5066 74.643 71.403 74.7403C71.3183 74.8219 71.2681 74.9035 71.1897 74.9882C71.1081 75.0761 71.0579 75.1169 70.9826 75.2111C70.9104 75.2989 70.8351 75.3585 70.7629 75.4464L69.0906 77.3043C69.0247 77.389 68.9557 77.4424 68.8866 77.5302C68.6544 77.8221 68.0332 78.4843 67.7257 78.8263L66.1882 80.5932C65.8682 80.951 65.4729 81.4499 65.1622 81.7732L63.9385 83.2137C63.8318 83.358 63.6687 83.5463 63.5463 83.6656Z" fill="#B6D0A0"/>
</svg>
