<svg width="130" height="130" viewBox="0 0 130 130" fill="none" xmlns="http://www.w3.org/2000/svg">
<path fill-rule="evenodd" clip-rule="evenodd" d="M94.7991 48.0975C96.4997 48.1038 98.2003 48.0975 99.9009 48.0975C101.005 48.0975 103.98 48.2544 104.793 47.8872C105.342 47.6393 105.941 47.1058 106.173 46.7135C106.788 45.681 106.619 43.9581 105.436 43.0198C104.884 42.5804 104.444 42.4109 103.566 42.4109C100.186 42.4015 96.8072 42.4109 93.4279 42.4109C92.5054 42.4109 91.9909 42.3952 91.1939 42.7216C90.3813 43.0574 90.2369 43.4905 90.0016 44.0836C89.465 45.4237 89.1356 46.6256 88.985 48.0975L37.1821 48.1006C35.2964 48.1038 34.9857 48.1602 33.9283 49.1614C33.0247 50.015 33.2036 51.264 33.2036 52.7422C33.2004 55.598 33.2036 58.4538 33.2004 61.3128C33.2004 62.521 33.0906 73.4925 33.2946 74.1578C34.0633 76.6778 37.1225 76.5146 39.3377 76.7594L50.9219 78.1089C56.0646 78.7522 61.2386 79.2952 66.3781 79.9134C68.9729 80.2272 71.5427 80.5222 74.1312 80.8141C76.6602 81.0965 79.2833 81.5077 81.7965 81.7148C81.6836 82.3738 81.1032 84.4074 81.1628 84.9001C81.2695 85.7757 82.0037 86.8051 82.3017 87.5331C81.2349 87.5959 79.9924 87.5457 78.9068 87.5426C77.7741 87.5426 76.6414 87.5488 75.5087 87.5426C73.2433 87.53 70.9685 87.5332 68.7062 87.5426C64.1943 87.5645 59.6792 87.5175 55.1672 87.5426C52.905 87.5551 50.6301 87.5551 48.3647 87.5426C47.1128 87.5363 42.466 87.4798 41.5686 87.552C40.6681 87.621 39.8774 88.1137 39.4318 88.8104C38.9392 89.5856 38.6756 90.4423 39.0741 91.4717C39.3471 92.1778 40.1472 92.7929 40.8783 93.0691C41.6282 93.3515 43.1249 93.2134 44.0348 93.2731C43.357 93.2134 42.4063 93.6246 41.9012 93.8945C39.4506 95.2157 38.0513 98.4512 39.4915 101.395C39.7519 101.932 40.2853 102.719 40.6241 103.005C43.2661 105.211 45.8358 105.095 48.4557 103.005C48.7758 102.751 49.3594 101.919 49.6167 101.42C51.6279 97.5192 48.2863 93.3798 45.18 93.2699C46.5198 93.113 48.5185 93.2417 49.9368 93.2323C57.8625 93.1883 65.8666 93.2511 73.8081 93.2354C75.4396 93.2323 82.2767 93.1538 83.334 93.2731C82.7473 93.2385 81.7056 93.6873 81.2977 93.9227C80.6074 94.3244 80.3093 94.723 79.8543 95.2251C78.9727 96.1948 78.3703 97.5223 78.4769 99.3143C78.5805 101.075 79.3554 102.255 80.2309 103.03C85.6119 107.813 92.7157 100.752 88.2194 95.1717C87.253 93.9729 86.2646 93.5492 84.7271 93.2605C85.9414 93.1444 87.1651 93.4614 88.1629 92.8745C88.85 92.4728 89.5937 91.7102 89.6345 90.5522C89.669 89.6766 89.0979 88.6127 88.7025 87.6901C88.3354 86.8364 87.8146 86.0205 87.3659 85.2328C87.0396 84.6647 86.9235 84.5926 87.0835 83.8739C87.1965 83.3498 87.3032 82.8414 87.4162 82.3142L89.4242 73.0092C90.7326 66.7452 92.1478 60.5439 93.4687 54.2893C93.7511 52.9524 94.6704 49.0766 94.7991 48.0975Z" fill="#D8D8D8"/>
<path d="M85.7886 53.4036L44.2544 27.7009C42.7364 26.7615 40.8048 27.1334 39.9399 28.5314L25.5659 51.7681C24.7011 53.1661 25.2306 55.061 26.7486 56.0004L68.2828 81.7031C69.8008 82.6425 71.7324 82.2707 72.5973 80.8726L86.9713 57.6359C87.8361 56.2379 87.3066 54.343 85.7886 53.4036Z" fill="#B6D0A0"/>
<path fill-rule="evenodd" clip-rule="evenodd" d="M35.4343 48.8727L59.2461 63.6101C60.338 64.2849 60.6768 65.7285 60.0022 66.8206L59.4124 67.7746C58.7346 68.8667 57.2913 69.2057 56.1994 68.5309L32.3876 53.7967C31.2989 53.122 30.9569 51.6752 31.6315 50.5831L32.2213 49.6291C32.8991 48.5401 34.3424 48.198 35.4343 48.8727ZM74.4732 52.3029L80.9398 56.3042C81.6803 56.7624 81.9094 57.7415 81.4545 58.479L77.6422 64.6426C77.1841 65.3801 76.2051 65.6123 75.4678 65.1542L68.998 61.1497C68.2606 60.6946 68.0284 59.7155 68.4865 58.9749L72.2988 52.8144C72.7537 52.0769 73.7327 51.8447 74.4732 52.3029Z" fill="#FAFAFA"/>
</svg>
