<svg width="20" height="20" viewBox="0 0 20 20" fill="none" xmlns="http://www.w3.org/2000/svg">
<path fill-rule="evenodd" clip-rule="evenodd" d="M6.48084 0.23638C4.88762 0.27841 3.67753 0.465776 2.52348 1.17675C1.61491 1.73665 0.791127 2.6635 0.403723 3.9401C-0.0285117 5.3646 0.028746 6.88863 0.0185127 8.45019C0.00815762 10.0493 -0.0253438 11.7423 0.0356905 13.3337C0.0970903 14.9327 0.258509 16.1062 0.977764 17.2681C2.58196 19.8603 5.40891 19.7681 8.23269 19.7721C9.67034 19.7741 11.7724 19.8159 13.1322 19.7599C14.6755 19.6965 15.9285 19.5314 17.0551 18.8098C19.6903 17.1223 19.5695 14.4949 19.574 11.55C19.5765 9.92744 19.5627 8.31362 19.5384 6.69444C19.5138 5.04944 19.3454 3.94972 18.6107 2.73623C17.0271 0.120399 14.1374 0.210794 11.3599 0.214936C9.73674 0.217372 8.10026 0.193741 6.48084 0.23638ZM9.44545 6.71357C11.3553 6.51889 12.8646 7.96812 13.0293 9.65991C13.1294 10.6887 12.729 11.6232 12.2222 12.1382C11.9557 12.409 11.6998 12.6653 11.3088 12.8704C9.19401 13.979 6.62277 12.531 6.46367 10.2869C6.32503 8.3325 7.69446 6.89192 9.44545 6.71357ZM14.7475 3.59144C14.2151 3.73933 13.6654 4.32458 13.861 5.01704C14.0035 5.52151 14.5995 6.06753 15.2702 5.8882C15.7817 5.75127 16.3397 5.16176 16.1574 4.47162C16.0234 3.96447 15.4311 3.40151 14.7475 3.59144ZM9.44046 4.98134C8.05787 5.07405 7.1013 5.54307 6.18834 6.43386C6.11001 6.51024 6.09247 6.52803 6.03058 6.60454C5.60821 7.12497 5.3352 7.4617 5.06487 8.13783C4.28129 10.0981 4.87787 12.4329 6.35146 13.7057C6.7742 14.0707 7.23567 14.4233 7.87842 14.6759C9.17573 15.1856 10.809 15.1328 12.0499 14.4901C15.1967 12.8606 15.7063 8.56628 13.1435 6.25539C12.2737 5.4712 11.1081 4.86963 9.44046 4.98134Z" fill="white"/>
</svg>
