<svg width="20" height="20" viewBox="0 0 20 20" fill="none" xmlns="http://www.w3.org/2000/svg">
<path fill-rule="evenodd" clip-rule="evenodd" d="M6.48084 0.236746C4.88762 0.278776 3.67753 0.466142 2.52348 1.17711C1.61491 1.73702 0.791127 2.66387 0.403723 3.94047C-0.0285117 5.36497 0.028746 6.889 0.0185127 8.45055C0.00815762 10.0496 -0.0253438 11.7426 0.0356905 13.334C0.0970903 14.9331 0.258509 16.1065 0.977764 17.2685C2.58196 19.8607 5.40891 19.7685 8.23269 19.7725C9.67034 19.7744 11.7724 19.8162 13.1322 19.7603C14.6755 19.6968 15.9285 19.5318 17.0551 18.8102C19.6903 17.1227 19.5695 14.4953 19.574 11.5504C19.5765 9.9278 19.5627 8.31399 19.5384 6.69481C19.5138 5.04981 19.3454 3.95009 18.6107 2.73659C17.0271 0.120766 14.1374 0.21116 11.3599 0.215302C9.73674 0.217739 8.10026 0.194108 6.48084 0.236746ZM9.44545 6.71393C11.3553 6.51926 12.8646 7.96849 13.0293 9.66027C13.1294 10.6891 12.729 11.6236 12.2222 12.1386C11.9557 12.4094 11.6998 12.6657 11.3088 12.8707C9.19401 13.9793 6.62277 12.5313 6.46367 10.2873C6.32503 8.33286 7.69446 6.89229 9.44545 6.71393ZM14.7475 3.59181C14.2151 3.7397 13.6654 4.32495 13.861 5.0174C14.0035 5.52188 14.5995 6.0679 15.2702 5.88857C15.7817 5.75164 16.3397 5.16213 16.1574 4.47199C16.0234 3.96483 15.4311 3.40188 14.7475 3.59181ZM9.44046 4.98171C8.05787 5.07441 7.1013 5.54344 6.18834 6.43422C6.11001 6.51061 6.09247 6.5284 6.03058 6.6049C5.60821 7.12534 5.3352 7.46206 5.06487 8.13819C4.28129 10.0985 4.87787 12.4332 6.35146 13.7061C6.7742 14.0711 7.23567 14.4236 7.87842 14.6763C9.17573 15.186 10.809 15.1331 12.0499 14.4905C15.1967 12.861 15.7063 8.56665 13.1435 6.25575C12.2737 5.47156 11.1081 4.86999 9.44046 4.98171Z" fill="white" fill-opacity="0.6"/>
</svg>
