<svg width="145" height="36" viewBox="0 0 145 36" fill="none" xmlns="http://www.w3.org/2000/svg">
<path d="M51.5352 12.9375V30H47.5156V16.1133H43.1328V30H39.1367V12.9375H51.5352ZM57.582 19.7578V34.875H53.7383V17.3203H57.3125L57.582 19.7578ZM63.9102 23.0391V24.2227C63.9102 25.2227 63.8203 26.0977 63.6406 26.8477C63.4688 27.5977 63.207 28.2266 62.8555 28.7344C62.5039 29.2344 62.0664 29.6094 61.543 29.8594C61.0273 30.1094 60.4297 30.2344 59.75 30.2344C59.1328 30.2344 58.6133 30.0742 58.1914 29.7539C57.7773 29.4258 57.4336 28.9766 57.1602 28.4062C56.8945 27.8359 56.6797 27.1836 56.5156 26.4492C56.3516 25.707 56.2148 24.9297 56.1055 24.1172V23.3086C56.2148 22.4336 56.3477 21.6172 56.5039 20.8594C56.6602 20.1016 56.875 19.4414 57.1484 18.8789C57.4219 18.3164 57.7695 17.8789 58.1914 17.5664C58.6133 17.2461 59.1328 17.0859 59.75 17.0859C60.4375 17.0859 61.0391 17.2031 61.5547 17.4375C62.0703 17.6641 62.5039 18.0195 62.8555 18.5039C63.207 18.9883 63.4688 19.6055 63.6406 20.3555C63.8203 21.1055 63.9102 22 63.9102 23.0391ZM60.0664 24.2227V23.0391C60.0664 22.4766 60.043 22.0078 59.9961 21.6328C59.957 21.2578 59.8867 20.9609 59.7852 20.7422C59.6836 20.5156 59.5508 20.3594 59.3867 20.2734C59.2227 20.1797 59.0117 20.1328 58.7539 20.1328C58.4648 20.1328 58.2188 20.1914 58.0156 20.3086C57.8203 20.418 57.6641 20.5938 57.5469 20.8359C57.4375 21.0703 57.3633 21.3672 57.3242 21.7266C57.2852 22.0781 57.2773 22.4961 57.3008 22.9805V24.457C57.2617 25.0039 57.2773 25.4844 57.3477 25.8984C57.418 26.3047 57.5664 26.625 57.793 26.8594C58.0273 27.0859 58.3555 27.1992 58.7773 27.1992C59.043 27.1992 59.2578 27.1484 59.4219 27.0469C59.5938 26.9453 59.7266 26.7773 59.8203 26.543C59.9141 26.3086 59.9766 26 60.0078 25.6172C60.0469 25.2344 60.0664 24.7695 60.0664 24.2227ZM65.2227 24.2578V23.0742C65.2227 22.0742 65.3477 21.2031 65.5977 20.4609C65.8477 19.7109 66.2031 19.0898 66.6641 18.5977C67.125 18.0977 67.6758 17.7227 68.3164 17.4727C68.957 17.2148 69.6719 17.0859 70.4609 17.0859C71.2656 17.0859 71.9883 17.2148 72.6289 17.4727C73.2695 17.7227 73.8203 18.0977 74.2812 18.5977C74.7422 19.0898 75.0977 19.7109 75.3477 20.4609C75.5977 21.2031 75.7227 22.0742 75.7227 23.0742V24.2578C75.7227 25.25 75.5977 26.1211 75.3477 26.8711C75.0977 27.6211 74.7422 28.2461 74.2812 28.7461C73.8281 29.2461 73.2773 29.6211 72.6289 29.8711C71.9883 30.1133 71.2734 30.2344 70.4844 30.2344C69.6953 30.2344 68.9766 30.1133 68.3281 29.8711C67.6797 29.6211 67.125 29.2461 66.6641 28.7461C66.2031 28.2461 65.8477 27.6211 65.5977 26.8711C65.3477 26.1211 65.2227 25.25 65.2227 24.2578ZM69.0781 23.0742V24.2578C69.0781 24.7969 69.1094 25.2578 69.1719 25.6406C69.2344 26.0156 69.3242 26.3203 69.4414 26.5547C69.5664 26.7812 69.7148 26.9453 69.8867 27.0469C70.0586 27.1484 70.2578 27.1992 70.4844 27.1992C70.7734 27.1992 71.0078 27.1484 71.1875 27.0469C71.375 26.9453 71.5195 26.7812 71.6211 26.5547C71.7227 26.3203 71.7891 26.0156 71.8203 25.6406C71.8594 25.2578 71.8789 24.7969 71.8789 24.2578V23.0742C71.8789 22.543 71.8477 22.0938 71.7852 21.7266C71.7305 21.3516 71.6406 21.0469 71.5156 20.8125C71.3984 20.5703 71.25 20.3984 71.0703 20.2969C70.8906 20.1875 70.6875 20.1328 70.4609 20.1328C70.2422 20.1328 70.0469 20.1875 69.875 20.2969C69.7031 20.3984 69.5586 20.5703 69.4414 20.8125C69.3242 21.0469 69.2344 21.3516 69.1719 21.7266C69.1094 22.0938 69.0781 22.543 69.0781 23.0742ZM89.0938 26.8359V30H79.3203V26.8359H89.0938ZM80.6445 26.8359V34.1836H76.9297L76.6484 26.8359H80.6445ZM91.8008 26.8359L91.3672 34.1953H87.7812V26.8359H91.8008ZM87.5 12.9375V16.1133H80.2227V12.9375H87.5ZM90.207 12.9375V30H86.2109V12.9375H90.207ZM79.9883 12.9375H83.9844L83.5273 19.9336C83.4492 21.1289 83.332 22.168 83.1758 23.0508C83.0195 23.9336 82.8281 24.6953 82.6016 25.3359C82.3828 25.9766 82.1445 26.5273 81.8867 26.9883C81.6289 27.4492 81.3555 27.8516 81.0664 28.1953C80.7852 28.5391 80.5 28.8516 80.2109 29.1328C79.9297 29.4141 79.6523 29.7031 79.3789 30H77.0117V26.8359H77.7031C77.9141 26.6641 78.1133 26.4336 78.3008 26.1445C78.4961 25.8477 78.6719 25.4453 78.8281 24.9375C78.9844 24.4297 79.1211 23.7695 79.2383 22.957C79.3555 22.1445 79.4492 21.1367 79.5195 19.9336L79.9883 12.9375ZM92.6914 24.2578V23.0742C92.6914 22.0742 92.8164 21.2031 93.0664 20.4609C93.3164 19.7109 93.6719 19.0898 94.1328 18.5977C94.5938 18.0977 95.1445 17.7227 95.7852 17.4727C96.4258 17.2148 97.1406 17.0859 97.9297 17.0859C98.7344 17.0859 99.457 17.2148 100.098 17.4727C100.738 17.7227 101.289 18.0977 101.75 18.5977C102.211 19.0898 102.566 19.7109 102.816 20.4609C103.066 21.2031 103.191 22.0742 103.191 23.0742V24.2578C103.191 25.25 103.066 26.1211 102.816 26.8711C102.566 27.6211 102.211 28.2461 101.75 28.7461C101.297 29.2461 100.746 29.6211 100.098 29.8711C99.457 30.1133 98.7422 30.2344 97.9531 30.2344C97.1641 30.2344 96.4453 30.1133 95.7969 29.8711C95.1484 29.6211 94.5938 29.2461 94.1328 28.7461C93.6719 28.2461 93.3164 27.6211 93.0664 26.8711C92.8164 26.1211 92.6914 25.25 92.6914 24.2578ZM96.5469 23.0742V24.2578C96.5469 24.7969 96.5781 25.2578 96.6406 25.6406C96.7031 26.0156 96.793 26.3203 96.9102 26.5547C97.0352 26.7812 97.1836 26.9453 97.3555 27.0469C97.5273 27.1484 97.7266 27.1992 97.9531 27.1992C98.2422 27.1992 98.4766 27.1484 98.6562 27.0469C98.8438 26.9453 98.9883 26.7812 99.0898 26.5547C99.1914 26.3203 99.2578 26.0156 99.2891 25.6406C99.3281 25.2578 99.3477 24.7969 99.3477 24.2578V23.0742C99.3477 22.543 99.3164 22.0938 99.2539 21.7266C99.1992 21.3516 99.1094 21.0469 98.9844 20.8125C98.8672 20.5703 98.7188 20.3984 98.5391 20.2969C98.3594 20.1875 98.1562 20.1328 97.9297 20.1328C97.7109 20.1328 97.5156 20.1875 97.3438 20.2969C97.1719 20.3984 97.0273 20.5703 96.9102 20.8125C96.793 21.0469 96.7031 21.3516 96.6406 21.7266C96.5781 22.0938 96.5469 22.543 96.5469 23.0742ZM111.781 25.6406L113.727 17.3203H116.668L113.07 30H110.504L106.906 17.3203H109.859L111.781 25.6406ZM109.004 17.3203V30H105.16V17.3203H109.004ZM114.711 30V17.3203H118.555V30H114.711ZM124.824 24.6797L127.062 17.3203H130.906V30H127.062V22.6172L124.824 30H120.957V17.3203H124.824V24.6797ZM136.988 17.3203V30H133.133V17.3203H136.988ZM143.855 17.3203L139.566 25.5703H136.496L136.051 21.8789H137.738L138.945 17.3203H143.855ZM138.91 30L137.48 24.832L141.078 23.1797L144.113 30H138.91Z" fill="white" fill-opacity="0.6"/>
<path d="M16.5794 0.416887L30.4745 12.965C31.1285 13.5567 31.1789 14.5664 30.5872 15.2201C30.272 15.5685 29.8385 15.7455 29.4031 15.7455V15.7529H1.60412C0.718331 15.7529 0 15.0345 0 14.1487C0 13.6225 0.253688 13.1552 0.645576 12.863L14.4321 0.412648C15.048 -0.144386 15.9788 -0.132064 16.5794 0.416887ZM23.2061 3.46306H27.3417C27.8448 3.46306 28.2563 3.87458 28.2563 4.37733V8.15532C28.2563 8.62381 27.8991 9.013 27.4437 9.0642L22.2914 4.4116V4.37733C22.2914 3.87458 22.7029 3.46306 23.2061 3.46306ZM19.0535 30.3701H19.9204H22.1559H26.0213C26.6576 30.3701 27.1784 29.8493 27.1784 29.2129V17.959C27.1784 17.3227 26.6576 16.8022 26.0213 16.8022H4.9856C4.34964 16.8022 3.82879 17.3227 3.82879 17.959V29.2129C3.82879 29.8493 4.34964 30.3701 4.9856 30.3701H8.85096H11.4487H11.9537C12.5034 30.3701 12.9531 29.9205 12.9531 29.3708V28.7475V22.7972C12.9531 22.2475 13.4027 21.7979 13.952 21.7979H17.0548C17.6045 21.7979 18.0542 22.2475 18.0542 22.7972V27.8833V29.3708C18.0542 29.9205 18.5038 30.3701 19.0535 30.3701Z" fill="white" fill-opacity="0.6"/>
</svg>
