<svg width="21" height="20" viewBox="0 0 21 20" fill="none" xmlns="http://www.w3.org/2000/svg">
<path fill-rule="evenodd" clip-rule="evenodd" d="M13.819 6.61061C15.5486 6.03268 14.5189 8.26962 14.2444 9.03541C13.8699 10.0801 13.5135 11.1156 13.1524 12.1511C12.9431 12.7514 12.3971 14.9603 11.7424 15.0282C11.1795 15.0866 10.9567 14.4602 10.7156 13.9673C10.0513 12.6095 9.92426 11.8739 9.02251 11.4417C8.18082 11.0382 6.48879 10.4068 6.39243 9.75869C6.29326 9.09182 6.93394 9.01044 7.47192 8.82515C9.62713 8.08299 11.6832 7.32414 13.819 6.61061ZM20.8983 11.1543C21.5643 5.22632 17.2597 0.741938 12.1597 0.0843269C6.34163 -0.665872 1.67403 3.70046 1.04127 8.76338C0.2985 14.7049 4.69492 19.2972 9.76966 19.9221C15.6363 20.6446 20.3273 16.2359 20.8983 11.1543Z" fill="white" fill-opacity="0.6"/>
</svg>
