<svg width="21" height="20" viewBox="0 0 21 20" fill="none" xmlns="http://www.w3.org/2000/svg">
<path fill-rule="evenodd" clip-rule="evenodd" d="M13.4342 6.61061C15.1638 6.03268 14.1341 8.26962 13.8596 9.03541C13.4852 10.0801 13.1287 11.1156 12.7676 12.1511C12.5583 12.7514 12.0123 14.9603 11.3576 15.0282C10.7948 15.0866 10.572 14.4602 10.3309 13.9673C9.66656 12.6095 9.53949 11.8739 8.63775 11.4417C7.79606 11.0382 6.10403 10.4068 6.00766 9.75869C5.9085 9.09182 6.54917 9.01044 7.08715 8.82515C9.24236 8.08299 11.2984 7.32414 13.4342 6.61061ZM20.5135 11.1543C21.1795 5.22632 16.8749 0.741938 11.775 0.0843269C5.95687 -0.665872 1.28926 3.70046 0.656501 8.76338C-0.0862661 14.7049 4.31015 19.2972 9.38489 19.9221C15.2515 20.6446 19.9425 16.2359 20.5135 11.1543Z" fill="white"/>
</svg>
