<svg width="20" height="20" viewBox="0 0 20 20" fill="none" xmlns="http://www.w3.org/2000/svg">
<path fill-rule="evenodd" clip-rule="evenodd" d="M5.36233 0.210571H15.0216C17.7496 0.210571 19.9815 2.44228 19.9815 5.17043V14.8297C19.9815 17.5577 17.7496 19.7896 15.0216 19.7896H5.36233C2.63419 19.7896 0.402344 17.5577 0.402344 14.8297V5.17043C0.402344 2.44228 2.63419 0.210571 5.36233 0.210571ZM2.85883 6.41671V6.60931L3.22735 7.43139C3.64485 8.36968 4.35046 9.65639 4.91463 10.5246C5.23746 11.0214 6.07695 12.1689 6.47069 12.5527C7.23892 13.3016 8.47228 14.0712 9.65276 14.1372C10.0248 14.1582 10.4706 14.1464 10.8479 14.141C11.7609 14.1277 11.217 13.2931 11.64 12.5519C12.2977 11.3992 13.1566 13.6208 14.2822 14.0652C14.6768 14.2211 14.9208 14.1705 15.3695 14.165C15.7624 14.16 16.1486 14.1505 16.5409 14.1454C16.9116 14.1407 17.329 14.1472 17.4725 13.8886C17.8339 13.237 15.9383 11.6312 15.4857 11.1518C14.9201 10.5525 15.064 10.3826 15.6397 9.61595C16.2049 8.86344 17.1664 7.71329 17.4733 6.81544L17.525 6.69166V6.48322C17.4326 6.31023 17.4319 6.27843 17.2018 6.22264C17.0129 6.17683 14.4524 6.20436 14.3395 6.23214C14.0789 6.29634 13.9912 6.66206 13.8831 6.92386C13.5168 7.8116 12.6938 9.26802 12.099 9.75496C11.7697 10.0244 11.5547 9.86533 11.4622 9.48292C11.3843 9.16033 11.4164 8.74892 11.4258 8.40988C11.4365 8.02077 11.439 7.64872 11.4549 7.26168C11.4701 6.89365 11.491 6.52635 11.3583 6.21265C11.1652 5.75593 9.99436 5.82537 9.46564 5.8289C9.03511 5.83182 7.80383 5.82999 7.72635 6.40513C8.0113 6.47822 8.15249 6.48724 8.34254 6.67388C8.72653 7.0508 8.6577 8.49199 8.60032 8.99355C8.54806 9.44966 8.45839 10.2073 7.86949 9.81794C7.25915 9.41433 6.53502 7.80185 6.17198 7.06335C6.08598 6.88877 5.99716 6.60505 5.89409 6.45155C5.64033 6.07328 4.94935 6.1973 4.40552 6.19949C4.10863 6.20083 3.81174 6.20314 3.51485 6.20448C3.0987 6.20643 3.06666 6.19876 2.85883 6.41671Z" fill="white"/>
</svg>
