<svg width="21" height="20" viewBox="0 0 21 20" fill="none" xmlns="http://www.w3.org/2000/svg">
<path fill-rule="evenodd" clip-rule="evenodd" d="M5.51614 0.210938H15.1754C17.9034 0.210938 20.1353 2.44265 20.1353 5.1708V14.8301C20.1353 17.5581 17.9034 19.7899 15.1754 19.7899H5.51614C2.78799 19.7899 0.556152 17.5581 0.556152 14.8301V5.1708C0.556152 2.44265 2.78799 0.210938 5.51614 0.210938ZM3.01264 6.41707V6.60968L3.38116 7.43175C3.79865 8.37005 4.50426 9.65676 5.06844 10.525C5.39127 11.0218 6.23076 12.1693 6.6245 12.553C7.39273 13.302 8.62609 14.0716 9.80657 14.1376C10.1786 14.1586 10.6244 14.1468 11.0017 14.1414C11.9148 14.1281 11.3708 13.2935 11.7938 12.5523C12.4515 11.3996 13.3104 13.6212 14.436 14.0656C14.8306 14.2214 15.0746 14.1709 15.5233 14.1654C15.9162 14.1604 16.3024 14.1509 16.6947 14.1458C17.0654 14.141 17.4828 14.1476 17.6263 13.889C17.9877 13.2373 16.0921 11.6315 15.6396 11.1522C15.0739 10.5529 15.2178 10.383 15.7935 9.61632C16.3587 8.8638 17.3203 7.71365 17.6271 6.8158L17.6788 6.69203V6.48359C17.5864 6.3106 17.5857 6.2788 17.3556 6.223C17.1668 6.1772 14.6062 6.20473 14.4933 6.2325C14.2327 6.2967 14.145 6.66243 14.0369 6.92423C13.6706 7.81197 12.8476 9.26839 12.2528 9.75532C11.9235 10.0248 11.7085 9.86569 11.616 9.48328C11.5381 9.16069 11.5702 8.74929 11.5796 8.41025C11.5903 8.02114 11.5928 7.64909 11.6087 7.26205C11.624 6.89401 11.6448 6.52671 11.5121 6.21301C11.319 5.75629 10.1482 5.82573 9.61945 5.82927C9.18892 5.83219 7.95764 5.83036 7.88016 6.4055C8.1651 6.47859 8.3063 6.48761 8.49635 6.67424C8.88034 7.05117 8.81151 8.49236 8.75413 8.99391C8.70187 9.45003 8.6122 10.2077 8.0233 9.8183C7.41296 9.4147 6.68883 7.80222 6.32579 7.06371C6.23978 6.88914 6.15097 6.60541 6.0479 6.45191C5.79414 6.07365 5.10316 6.19766 4.55933 6.19986C4.26244 6.2012 3.96555 6.20351 3.66866 6.20485C3.25251 6.2068 3.22047 6.19913 3.01264 6.41707Z" fill="white" fill-opacity="0.6"/>
</svg>
