<svg width="21" height="20" viewBox="0 0 21 20" fill="none" xmlns="http://www.w3.org/2000/svg">
<path fill-rule="evenodd" clip-rule="evenodd" d="M6.82873 5.36059C7.9483 5.08368 8.05185 5.77589 8.33851 6.48893C8.78804 7.6068 9.04984 7.79819 8.61749 8.40597C8.50053 8.57043 8.44023 8.63975 8.2983 8.79045C8.21509 8.87865 8.03857 9.0352 8.03504 9.17761C8.02432 9.60388 9.09078 10.7364 9.46417 11.0916C9.98497 11.5873 10.8029 12.1026 11.5331 12.3681C11.8008 12.4654 11.8878 12.3572 12.0277 12.2171C13.2538 10.9898 12.3151 10.6813 14.8414 11.8838C15.3537 12.1277 15.5313 12.1365 15.5356 12.5288C15.5393 12.871 15.4197 13.3825 15.2858 13.6183C15.167 13.8277 14.7994 14.1484 14.5745 14.2787C13.4404 14.9354 12.5413 14.6834 11.327 14.2581C10.6209 14.0107 10.0527 13.7403 9.49938 13.3939C8.89013 13.0125 8.14103 12.3754 7.67212 11.8223L7.35989 11.4752C7.16192 11.2276 6.97663 10.9927 6.78366 10.7245C6.41416 10.2112 6.04405 9.73521 5.75898 9.06018C5.06762 7.42309 5.81514 5.6113 6.82873 5.36059ZM10.4921 19.8326C13.2913 19.8326 15.5577 18.7093 17.4197 16.9879C18.3686 16.1106 18.862 15.2218 19.458 14.1339C19.5844 13.903 19.7363 13.5157 19.8211 13.2659C20.3159 11.8087 20.4027 11.0711 20.4023 9.53261C20.402 7.54735 19.5733 5.67246 18.5923 4.20752C18.3584 3.85812 17.8194 3.23182 17.5046 2.91703C17.1873 2.59967 16.568 2.05804 16.2146 1.82913C14.9949 1.03909 14.3492 0.687021 12.9542 0.331536C11.699 0.0116234 11.3164 0.01905 10.0953 0.01905C8.03894 0.0191718 5.78664 1.02898 4.30878 2.2052C0.922772 4.90022 -0.33897 9.54102 1.36719 13.723C1.67991 14.4894 1.97717 14.6634 1.84548 15.1647L0.999157 18.2856C0.860885 18.789 0.736261 19.3524 0.581787 19.85C1.94976 19.4738 4.10411 18.9944 5.56589 18.6627C5.87727 18.5921 5.86899 18.6594 6.13104 18.7896C7.45466 19.4473 8.94556 19.8326 10.4921 19.8326Z" fill="white"/>
</svg>
