<svg width="21" height="20" viewBox="0 0 21 20" fill="none" xmlns="http://www.w3.org/2000/svg">
<path fill-rule="evenodd" clip-rule="evenodd" d="M6.59753 5.3606C7.7171 5.08369 7.82065 5.7759 8.10731 6.48894C8.55684 7.60681 8.81864 7.79819 8.38628 8.40598C8.26933 8.57044 8.20903 8.63976 8.0671 8.79046C7.98389 8.87866 7.80737 9.03521 7.80384 9.17762C7.79312 9.60389 8.85957 10.7364 9.23297 11.0916C9.75377 11.5873 10.5717 12.1026 11.3019 12.3681C11.5696 12.4654 11.6566 12.3573 11.7965 12.2172C13.0226 10.9898 12.0839 10.6813 14.6102 11.8838C15.1225 12.1277 15.3001 12.1365 15.3044 12.5288C15.3081 12.871 15.1885 13.3825 15.0546 13.6183C14.9358 13.8277 14.5682 14.1484 14.3433 14.2787C13.2092 14.9354 12.3101 14.6834 11.0958 14.2581C10.3897 14.0107 9.82151 13.7403 9.26818 13.3939C8.65893 13.0125 7.90983 12.3754 7.44092 11.8223L7.12868 11.4752C6.93072 11.2276 6.74543 10.9927 6.55245 10.7246C6.18296 10.2112 5.81285 9.73522 5.52778 9.06019C4.83642 7.4231 5.58394 5.61131 6.59753 5.3606ZM10.2609 19.8326C13.0601 19.8326 15.3265 18.7093 17.1885 16.9879C18.1374 16.1106 18.6308 15.2218 19.2268 14.1339C19.3532 13.903 19.5051 13.5157 19.5899 13.2659C20.0847 11.8087 20.1715 11.0711 20.1711 9.53262C20.1708 7.54736 19.3421 5.67247 18.3611 4.20752C18.1272 3.85813 17.5882 3.23183 17.2734 2.91704C16.9561 2.59968 16.3368 2.05804 15.9834 1.82913C14.7637 1.0391 14.118 0.687029 12.723 0.331544C11.4678 0.011631 11.0852 0.0190576 9.86414 0.0190576C7.80774 0.0191794 5.55543 1.02899 4.07757 2.20521C0.69157 4.90022 -0.570171 9.54103 1.13599 13.723C1.44871 14.4894 1.74597 14.6634 1.61428 15.1647L0.767956 18.2856C0.629684 18.789 0.50506 19.3524 0.350586 19.85C1.71856 19.4738 3.87291 18.9944 5.33469 18.6627C5.64607 18.5921 5.63779 18.6594 5.89983 18.7896C7.22346 19.4473 8.71436 19.8326 10.2609 19.8326Z" fill="white" fill-opacity="0.6"/>
</svg>
